<mxfile host="app.diagrams.net" agent="Mozilla/5.0 (Windows NT 10.0; Win64; x64) AppleWebKit/537.36 (KHTML, like Gecko) Chrome/135.0.0.0 Safari/537.36 OPR/120.0.0.0" version="28.2.3">
  <diagram name="Page-1" id="w8xBJWYYfO1381Vw4mv-">
    <mxGraphModel dx="3375" dy="1533" grid="1" gridSize="10" guides="1" tooltips="1" connect="1" arrows="1" fold="1" page="1" pageScale="1" pageWidth="850" pageHeight="1100" math="0" shadow="0">
      <root>
        <mxCell id="0" />
        <mxCell id="1" parent="0" />
        <mxCell id="bEkU1AH99YkD4TP8FKFF-1" value="" style="edgeStyle=orthogonalEdgeStyle;rounded=0;orthogonalLoop=1;jettySize=auto;html=1;" parent="1" source="bEkU1AH99YkD4TP8FKFF-2" target="bEkU1AH99YkD4TP8FKFF-4" edge="1">
          <mxGeometry relative="1" as="geometry" />
        </mxCell>
        <mxCell id="bEkU1AH99YkD4TP8FKFF-2" value="Start" style="ellipse;whiteSpace=wrap;html=1;fillColor=#008a00;fontColor=#ffffff;strokeColor=#005700;" parent="1" vertex="1">
          <mxGeometry x="651" y="8" width="120" height="80" as="geometry" />
        </mxCell>
        <mxCell id="bEkU1AH99YkD4TP8FKFF-3" value="" style="edgeStyle=orthogonalEdgeStyle;rounded=0;orthogonalLoop=1;jettySize=auto;html=1;" parent="1" source="bEkU1AH99YkD4TP8FKFF-4" target="bEkU1AH99YkD4TP8FKFF-6" edge="1">
          <mxGeometry relative="1" as="geometry" />
        </mxCell>
        <mxCell id="bEkU1AH99YkD4TP8FKFF-4" value="Declarations:&lt;div&gt;&lt;span style=&quot;background-color: transparent; color: light-dark(rgb(0, 0, 0), rgb(255, 255, 255));&quot;&gt;num&amp;nbsp;randomNumber&lt;/span&gt;&lt;/div&gt;&lt;div&gt;num guessedNumber&lt;/div&gt;" style="whiteSpace=wrap;html=1;fillColor=#dae8fc;strokeColor=#6c8ebf;" parent="1" vertex="1">
          <mxGeometry x="591" y="118" width="240" height="60" as="geometry" />
        </mxCell>
        <mxCell id="bEkU1AH99YkD4TP8FKFF-5" value="" style="edgeStyle=orthogonalEdgeStyle;rounded=0;orthogonalLoop=1;jettySize=auto;html=1;" parent="1" source="bEkU1AH99YkD4TP8FKFF-6" target="bEkU1AH99YkD4TP8FKFF-8" edge="1">
          <mxGeometry relative="1" as="geometry" />
        </mxCell>
        <mxCell id="bEkU1AH99YkD4TP8FKFF-6" value="information" style="shape=process;whiteSpace=wrap;html=1;backgroundOutline=1;fillColor=#0050ef;fontColor=#ffffff;strokeColor=#001DBC;" parent="1" vertex="1">
          <mxGeometry x="651" y="207" width="120" height="60" as="geometry" />
        </mxCell>
        <mxCell id="bEkU1AH99YkD4TP8FKFF-7" value="" style="edgeStyle=orthogonalEdgeStyle;rounded=0;orthogonalLoop=1;jettySize=auto;html=1;" parent="1" source="bEkU1AH99YkD4TP8FKFF-8" target="bEkU1AH99YkD4TP8FKFF-10" edge="1">
          <mxGeometry relative="1" as="geometry" />
        </mxCell>
        <mxCell id="bEkU1AH99YkD4TP8FKFF-8" value="housekeeping" style="shape=process;whiteSpace=wrap;html=1;backgroundOutline=1;fillColor=#0050ef;fontColor=#ffffff;strokeColor=#001DBC;" parent="1" vertex="1">
          <mxGeometry x="651" y="296" width="120" height="60" as="geometry" />
        </mxCell>
        <mxCell id="bEkU1AH99YkD4TP8FKFF-9" value="" style="edgeStyle=orthogonalEdgeStyle;rounded=0;orthogonalLoop=1;jettySize=auto;html=1;entryX=0.5;entryY=0;entryDx=0;entryDy=0;" parent="1" source="bEkU1AH99YkD4TP8FKFF-10" target="bEkU1AH99YkD4TP8FKFF-11" edge="1">
          <mxGeometry relative="1" as="geometry">
            <mxPoint x="711" y="528" as="targetPoint" />
          </mxGeometry>
        </mxCell>
        <mxCell id="bEkU1AH99YkD4TP8FKFF-10" value="endofJob" style="shape=process;whiteSpace=wrap;html=1;backgroundOutline=1;fillColor=#0050ef;fontColor=#ffffff;strokeColor=#001DBC;" parent="1" vertex="1">
          <mxGeometry x="651" y="389" width="120" height="60" as="geometry" />
        </mxCell>
        <mxCell id="bEkU1AH99YkD4TP8FKFF-11" value="Stop" style="ellipse;whiteSpace=wrap;html=1;fillColor=#008a00;fontColor=#ffffff;strokeColor=#005700;" parent="1" vertex="1">
          <mxGeometry x="651" y="490" width="120" height="80" as="geometry" />
        </mxCell>
        <mxCell id="bEkU1AH99YkD4TP8FKFF-14" value="" style="edgeStyle=orthogonalEdgeStyle;rounded=0;orthogonalLoop=1;jettySize=auto;html=1;" parent="1" source="bEkU1AH99YkD4TP8FKFF-12" target="bEkU1AH99YkD4TP8FKFF-13" edge="1">
          <mxGeometry relative="1" as="geometry" />
        </mxCell>
        <mxCell id="bEkU1AH99YkD4TP8FKFF-12" value="information" style="shape=process;whiteSpace=wrap;html=1;backgroundOutline=1;fillColor=#0050ef;fontColor=#ffffff;strokeColor=#001DBC;" parent="1" vertex="1">
          <mxGeometry x="-37" y="30" width="120" height="60" as="geometry" />
        </mxCell>
        <mxCell id="bEkU1AH99YkD4TP8FKFF-13" value="&lt;div&gt;output &quot;Please enter a number between 1 and 100, enter 0 to stop&quot;&lt;/div&gt;&lt;div&gt;&lt;span style=&quot;white-space: normal;&quot;&gt;&lt;span style=&quot;white-space:pre&quot;&gt;&#x9;&lt;/span&gt;input guessedNumber&lt;/span&gt;&lt;/div&gt;" style="shape=parallelogram;perimeter=parallelogramPerimeter;whiteSpace=wrap;html=1;fixedSize=1;fillColor=#fa6800;strokeColor=#C73500;fontColor=#000000;" parent="1" vertex="1">
          <mxGeometry x="-167" y="130" width="380" height="60" as="geometry" />
        </mxCell>
        <mxCell id="bEkU1AH99YkD4TP8FKFF-17" value="Return" style="ellipse;whiteSpace=wrap;html=1;fillColor=#1ba1e2;fontColor=#ffffff;strokeColor=#006EAF;" parent="1" vertex="1">
          <mxGeometry x="-37" y="230" width="120" height="80" as="geometry" />
        </mxCell>
        <mxCell id="bEkU1AH99YkD4TP8FKFF-18" value="" style="endArrow=classic;html=1;rounded=0;exitX=0.5;exitY=1;exitDx=0;exitDy=0;entryX=0.5;entryY=0;entryDx=0;entryDy=0;" parent="1" source="bEkU1AH99YkD4TP8FKFF-13" target="bEkU1AH99YkD4TP8FKFF-17" edge="1">
          <mxGeometry width="50" height="50" relative="1" as="geometry">
            <mxPoint x="280" y="400" as="sourcePoint" />
            <mxPoint x="330" y="350" as="targetPoint" />
          </mxGeometry>
        </mxCell>
        <mxCell id="bEkU1AH99YkD4TP8FKFF-19" value="housekeeping" style="shape=process;whiteSpace=wrap;html=1;backgroundOutline=1;fillColor=#0050ef;fontColor=#ffffff;strokeColor=#001DBC;" parent="1" vertex="1">
          <mxGeometry x="-453" y="422" width="120" height="60" as="geometry" />
        </mxCell>
        <mxCell id="bEkU1AH99YkD4TP8FKFF-20" value="guessControl" style="shape=process;whiteSpace=wrap;html=1;backgroundOutline=1;fillColor=#0050ef;fontColor=#ffffff;strokeColor=#001DBC;" parent="1" vertex="1">
          <mxGeometry x="-453" y="512" width="120" height="60" as="geometry" />
        </mxCell>
        <mxCell id="bEkU1AH99YkD4TP8FKFF-21" value="" style="endArrow=classic;html=1;rounded=0;exitX=0.5;exitY=1;exitDx=0;exitDy=0;entryX=0.5;entryY=0;entryDx=0;entryDy=0;" parent="1" source="bEkU1AH99YkD4TP8FKFF-19" target="bEkU1AH99YkD4TP8FKFF-20" edge="1">
          <mxGeometry width="50" height="50" relative="1" as="geometry">
            <mxPoint x="-136" y="682" as="sourcePoint" />
            <mxPoint x="-86" y="632" as="targetPoint" />
          </mxGeometry>
        </mxCell>
        <mxCell id="bEkU1AH99YkD4TP8FKFF-22" value="Does gussedNumber not equal random Number or does guessedNumber not equal 0?" style="rhombus;whiteSpace=wrap;html=1;fillColor=#60a917;fontColor=#ffffff;strokeColor=#2D7600;" parent="1" vertex="1">
          <mxGeometry x="-585.25" y="632" width="384.5" height="140" as="geometry" />
        </mxCell>
        <mxCell id="bEkU1AH99YkD4TP8FKFF-23" value="" style="endArrow=classic;html=1;rounded=0;exitX=0.5;exitY=1;exitDx=0;exitDy=0;entryX=0.5;entryY=0;entryDx=0;entryDy=0;" parent="1" source="bEkU1AH99YkD4TP8FKFF-20" target="bEkU1AH99YkD4TP8FKFF-22" edge="1">
          <mxGeometry width="50" height="50" relative="1" as="geometry">
            <mxPoint x="-136" y="682" as="sourcePoint" />
            <mxPoint x="-86" y="632" as="targetPoint" />
          </mxGeometry>
        </mxCell>
        <mxCell id="bEkU1AH99YkD4TP8FKFF-33" value="" style="edgeStyle=orthogonalEdgeStyle;rounded=0;orthogonalLoop=1;jettySize=auto;html=1;" parent="1" source="bEkU1AH99YkD4TP8FKFF-24" target="bEkU1AH99YkD4TP8FKFF-32" edge="1">
          <mxGeometry relative="1" as="geometry" />
        </mxCell>
        <mxCell id="bEkU1AH99YkD4TP8FKFF-24" value="Is guessedNumber not less than randomNumber?" style="rhombus;whiteSpace=wrap;html=1;fillColor=#60a917;fontColor=#ffffff;strokeColor=#2D7600;" parent="1" vertex="1">
          <mxGeometry x="-136" y="642" width="250" height="120" as="geometry" />
        </mxCell>
        <mxCell id="bEkU1AH99YkD4TP8FKFF-25" value="" style="endArrow=classic;html=1;rounded=0;" parent="1" source="bEkU1AH99YkD4TP8FKFF-22" target="bEkU1AH99YkD4TP8FKFF-24" edge="1">
          <mxGeometry width="50" height="50" relative="1" as="geometry">
            <mxPoint x="-200.75" y="703.46" as="sourcePoint" />
            <mxPoint x="-136" y="703.46" as="targetPoint" />
          </mxGeometry>
        </mxCell>
        <mxCell id="bEkU1AH99YkD4TP8FKFF-26" value="Yes" style="text;html=1;align=center;verticalAlign=middle;resizable=0;points=[];autosize=1;strokeColor=none;fillColor=none;" parent="1" vertex="1">
          <mxGeometry x="-194" y="671.46" width="40" height="30" as="geometry" />
        </mxCell>
        <mxCell id="bEkU1AH99YkD4TP8FKFF-37" value="" style="edgeStyle=orthogonalEdgeStyle;rounded=0;orthogonalLoop=1;jettySize=auto;html=1;" parent="1" source="bEkU1AH99YkD4TP8FKFF-32" target="bEkU1AH99YkD4TP8FKFF-36" edge="1">
          <mxGeometry relative="1" as="geometry" />
        </mxCell>
        <mxCell id="bEkU1AH99YkD4TP8FKFF-32" value="&lt;div&gt;output &quot;Your number is less than correct number, please try again&quot;&lt;/div&gt;&lt;div&gt;&lt;span style=&quot;white-space: normal;&quot;&gt;&lt;span style=&quot;white-space:pre&quot;&gt;&#x9;&#x9;&lt;/span&gt;input guessedNumber&lt;/span&gt;&lt;/div&gt;&lt;div&gt;&lt;br&gt;&lt;/div&gt;" style="shape=parallelogram;perimeter=parallelogramPerimeter;whiteSpace=wrap;html=1;fixedSize=1;fillColor=#fa6800;strokeColor=#C73500;fontColor=#000000;" parent="1" vertex="1">
          <mxGeometry x="154" y="671.46" width="410" height="60" as="geometry" />
        </mxCell>
        <mxCell id="bEkU1AH99YkD4TP8FKFF-36" value="if guessedNumber is not greater than randomNumber" style="rhombus;whiteSpace=wrap;html=1;fillColor=#60a917;strokeColor=#2D7600;fontColor=#ffffff;" parent="1" vertex="1">
          <mxGeometry x="223.5" y="772" width="271" height="80" as="geometry" />
        </mxCell>
        <mxCell id="bEkU1AH99YkD4TP8FKFF-38" value="guessControl" style="shape=process;whiteSpace=wrap;html=1;backgroundOutline=1;fillColor=#0050ef;fontColor=#ffffff;strokeColor=#001DBC;" parent="1" vertex="1">
          <mxGeometry x="-71" y="800" width="120" height="60" as="geometry" />
        </mxCell>
        <mxCell id="bEkU1AH99YkD4TP8FKFF-39" value="guessControl" style="shape=process;whiteSpace=wrap;html=1;backgroundOutline=1;fillColor=#0050ef;fontColor=#ffffff;strokeColor=#001DBC;" parent="1" vertex="1">
          <mxGeometry x="299" y="890" width="120" height="60" as="geometry" />
        </mxCell>
        <mxCell id="bEkU1AH99YkD4TP8FKFF-40" value="" style="endArrow=classic;html=1;rounded=0;exitX=0.5;exitY=1;exitDx=0;exitDy=0;entryX=0.5;entryY=0;entryDx=0;entryDy=0;" parent="1" source="bEkU1AH99YkD4TP8FKFF-24" target="bEkU1AH99YkD4TP8FKFF-38" edge="1">
          <mxGeometry width="50" height="50" relative="1" as="geometry">
            <mxPoint x="30" y="650" as="sourcePoint" />
            <mxPoint x="80" y="600" as="targetPoint" />
          </mxGeometry>
        </mxCell>
        <mxCell id="bEkU1AH99YkD4TP8FKFF-41" value="" style="endArrow=classic;html=1;rounded=0;exitX=0.5;exitY=1;exitDx=0;exitDy=0;entryX=0.5;entryY=0;entryDx=0;entryDy=0;" parent="1" source="bEkU1AH99YkD4TP8FKFF-36" target="bEkU1AH99YkD4TP8FKFF-39" edge="1">
          <mxGeometry width="50" height="50" relative="1" as="geometry">
            <mxPoint x="30" y="650" as="sourcePoint" />
            <mxPoint x="80" y="600" as="targetPoint" />
          </mxGeometry>
        </mxCell>
        <mxCell id="bEkU1AH99YkD4TP8FKFF-42" value="" style="endArrow=classic;html=1;rounded=0;exitX=1;exitY=0.5;exitDx=0;exitDy=0;entryX=0;entryY=0.5;entryDx=0;entryDy=0;" parent="1" source="bEkU1AH99YkD4TP8FKFF-36" target="bEkU1AH99YkD4TP8FKFF-50" edge="1">
          <mxGeometry width="50" height="50" relative="1" as="geometry">
            <mxPoint x="-11" y="860" as="sourcePoint" />
            <mxPoint x="540" y="910" as="targetPoint" />
            <Array as="points" />
          </mxGeometry>
        </mxCell>
        <mxCell id="bEkU1AH99YkD4TP8FKFF-43" value="" style="endArrow=none;html=1;rounded=0;exitX=0.5;exitY=1;exitDx=0;exitDy=0;" parent="1" source="bEkU1AH99YkD4TP8FKFF-39" edge="1">
          <mxGeometry width="50" height="50" relative="1" as="geometry">
            <mxPoint x="30" y="920" as="sourcePoint" />
            <mxPoint x="360" y="1000" as="targetPoint" />
          </mxGeometry>
        </mxCell>
        <mxCell id="bEkU1AH99YkD4TP8FKFF-44" value="Return" style="ellipse;whiteSpace=wrap;html=1;fillColor=#1ba1e2;fontColor=#ffffff;strokeColor=#006EAF;" parent="1" vertex="1">
          <mxGeometry x="-453" y="830" width="120" height="80" as="geometry" />
        </mxCell>
        <mxCell id="bEkU1AH99YkD4TP8FKFF-45" value="" style="endArrow=classic;html=1;rounded=0;exitX=0.5;exitY=1;exitDx=0;exitDy=0;entryX=0.5;entryY=0;entryDx=0;entryDy=0;" parent="1" source="bEkU1AH99YkD4TP8FKFF-22" target="bEkU1AH99YkD4TP8FKFF-44" edge="1">
          <mxGeometry width="50" height="50" relative="1" as="geometry">
            <mxPoint x="30" y="680" as="sourcePoint" />
            <mxPoint x="80" y="630" as="targetPoint" />
          </mxGeometry>
        </mxCell>
        <mxCell id="bEkU1AH99YkD4TP8FKFF-46" value="No" style="text;html=1;align=center;verticalAlign=middle;whiteSpace=wrap;rounded=0;" parent="1" vertex="1">
          <mxGeometry x="-455" y="780" width="60" height="30" as="geometry" />
        </mxCell>
        <mxCell id="bEkU1AH99YkD4TP8FKFF-47" value="Yes" style="text;html=1;align=center;verticalAlign=middle;resizable=0;points=[];autosize=1;strokeColor=none;fillColor=none;" parent="1" vertex="1">
          <mxGeometry x="110" y="660" width="40" height="30" as="geometry" />
        </mxCell>
        <mxCell id="bEkU1AH99YkD4TP8FKFF-48" value="No" style="text;html=1;align=center;verticalAlign=middle;whiteSpace=wrap;rounded=0;" parent="1" vertex="1">
          <mxGeometry x="-60" y="762" width="60" height="30" as="geometry" />
        </mxCell>
        <mxCell id="bEkU1AH99YkD4TP8FKFF-49" value="No" style="text;html=1;align=center;verticalAlign=middle;whiteSpace=wrap;rounded=0;" parent="1" vertex="1">
          <mxGeometry x="310" y="855" width="60" height="30" as="geometry" />
        </mxCell>
        <mxCell id="bEkU1AH99YkD4TP8FKFF-51" value="" style="endArrow=classic;html=1;rounded=0;exitX=0.5;exitY=1;exitDx=0;exitDy=0;" parent="1" source="bEkU1AH99YkD4TP8FKFF-38" edge="1">
          <mxGeometry width="50" height="50" relative="1" as="geometry">
            <mxPoint x="-11" y="860" as="sourcePoint" />
            <mxPoint x="-390" y="600" as="targetPoint" />
            <Array as="points">
              <mxPoint x="-11" y="1000" />
              <mxPoint x="360" y="1000" />
              <mxPoint x="1090" y="1000" />
              <mxPoint x="1090" y="600" />
              <mxPoint x="680" y="600" />
            </Array>
          </mxGeometry>
        </mxCell>
        <mxCell id="bEkU1AH99YkD4TP8FKFF-50" value="&lt;div&gt;output &quot;Your number is greater than correct number, please try again&quot;&lt;/div&gt;&lt;div&gt;&lt;span style=&quot;white-space: normal;&quot;&gt;&lt;span style=&quot;white-space:pre&quot;&gt;&#x9;&#x9;&lt;/span&gt;input guessedNumber&lt;/span&gt;&lt;/div&gt;&lt;div&gt;&lt;br&gt;&lt;/div&gt;" style="shape=parallelogram;perimeter=parallelogramPerimeter;whiteSpace=wrap;html=1;fixedSize=1;fillColor=#fa6800;strokeColor=#C73500;fontColor=#000000;" parent="1" vertex="1">
          <mxGeometry x="520" y="782" width="410" height="60" as="geometry" />
        </mxCell>
        <mxCell id="bEkU1AH99YkD4TP8FKFF-53" value="" style="endArrow=none;html=1;rounded=0;exitX=1;exitY=0.5;exitDx=0;exitDy=0;" parent="1" source="bEkU1AH99YkD4TP8FKFF-50" edge="1">
          <mxGeometry width="50" height="50" relative="1" as="geometry">
            <mxPoint x="460" y="710" as="sourcePoint" />
            <mxPoint x="1090" y="812" as="targetPoint" />
          </mxGeometry>
        </mxCell>
        <mxCell id="bEkU1AH99YkD4TP8FKFF-54" value="Yes" style="text;html=1;align=center;verticalAlign=middle;resizable=0;points=[];autosize=1;strokeColor=none;fillColor=none;" parent="1" vertex="1">
          <mxGeometry x="494.5" y="782" width="40" height="30" as="geometry" />
        </mxCell>
        <mxCell id="bEkU1AH99YkD4TP8FKFF-55" value="" style="edgeStyle=orthogonalEdgeStyle;rounded=0;orthogonalLoop=1;jettySize=auto;html=1;" parent="1" source="bEkU1AH99YkD4TP8FKFF-56" target="bEkU1AH99YkD4TP8FKFF-57" edge="1">
          <mxGeometry relative="1" as="geometry" />
        </mxCell>
        <mxCell id="bEkU1AH99YkD4TP8FKFF-56" value="endOfJob" style="shape=process;whiteSpace=wrap;html=1;backgroundOutline=1;fillColor=#0050ef;fontColor=#ffffff;strokeColor=#001DBC;" parent="1" vertex="1">
          <mxGeometry x="-647.5" y="80" width="120" height="60" as="geometry" />
        </mxCell>
        <mxCell id="bEkU1AH99YkD4TP8FKFF-57" value="output &quot;Thank you for using this program" style="shape=parallelogram;perimeter=parallelogramPerimeter;whiteSpace=wrap;html=1;fixedSize=1;fillColor=#fa6800;fontColor=#000000;strokeColor=#C73500;" parent="1" vertex="1">
          <mxGeometry x="-690" y="180" width="205" height="60" as="geometry" />
        </mxCell>
        <mxCell id="bEkU1AH99YkD4TP8FKFF-58" value="Return" style="ellipse;whiteSpace=wrap;html=1;fillColor=#1ba1e2;fontColor=#ffffff;strokeColor=#006EAF;" parent="1" vertex="1">
          <mxGeometry x="-647.5" y="286" width="120" height="80" as="geometry" />
        </mxCell>
        <mxCell id="bEkU1AH99YkD4TP8FKFF-59" value="" style="endArrow=classic;html=1;rounded=0;exitX=0.5;exitY=1;exitDx=0;exitDy=0;entryX=0.5;entryY=0;entryDx=0;entryDy=0;" parent="1" source="bEkU1AH99YkD4TP8FKFF-57" target="bEkU1AH99YkD4TP8FKFF-58" edge="1">
          <mxGeometry width="50" height="50" relative="1" as="geometry">
            <mxPoint x="-270" y="320" as="sourcePoint" />
            <mxPoint x="-220" y="270" as="targetPoint" />
          </mxGeometry>
        </mxCell>
        <mxCell id="bEkU1AH99YkD4TP8FKFF-62" value="" style="edgeStyle=orthogonalEdgeStyle;rounded=0;orthogonalLoop=1;jettySize=auto;html=1;" parent="1" source="bEkU1AH99YkD4TP8FKFF-60" target="bEkU1AH99YkD4TP8FKFF-61" edge="1">
          <mxGeometry relative="1" as="geometry" />
        </mxCell>
        <mxCell id="bEkU1AH99YkD4TP8FKFF-60" value="guessControl" style="shape=process;whiteSpace=wrap;html=1;backgroundOutline=1;fillColor=#0050ef;fontColor=#ffffff;strokeColor=#001DBC;" parent="1" vertex="1">
          <mxGeometry x="1320" y="60" width="120" height="60" as="geometry" />
        </mxCell>
        <mxCell id="bEkU1AH99YkD4TP8FKFF-61" value="Is guessedNumber equal to 0?" style="rhombus;whiteSpace=wrap;html=1;fillColor=#60a917;strokeColor=#2D7600;fontColor=#ffffff;" parent="1" vertex="1">
          <mxGeometry x="1250" y="187" width="260" height="80" as="geometry" />
        </mxCell>
        <mxCell id="bEkU1AH99YkD4TP8FKFF-63" value="&lt;div&gt;output &quot;Unrecognized input, please try again&quot;&lt;/div&gt;&lt;div&gt;&lt;span style=&quot;white-space: normal;&quot;&gt;&lt;span style=&quot;white-space:pre&quot;&gt;&#x9;&lt;/span&gt;input guessedNumber&lt;/span&gt;&lt;/div&gt;" style="shape=parallelogram;perimeter=parallelogramPerimeter;whiteSpace=wrap;html=1;fixedSize=1;fillColor=#fa6800;strokeColor=#C73500;fontColor=#000000;" parent="1" vertex="1">
          <mxGeometry x="1610" y="492" width="380" height="60" as="geometry" />
        </mxCell>
        <mxCell id="bEkU1AH99YkD4TP8FKFF-64" value="Return" style="ellipse;whiteSpace=wrap;html=1;fillColor=#1ba1e2;fontColor=#ffffff;strokeColor=#006EAF;" parent="1" vertex="1">
          <mxGeometry x="1320" y="662" width="120" height="80" as="geometry" />
        </mxCell>
        <mxCell id="bEkU1AH99YkD4TP8FKFF-65" value="" style="endArrow=classic;html=1;rounded=0;exitX=0.5;exitY=1;exitDx=0;exitDy=0;entryX=0.5;entryY=0;entryDx=0;entryDy=0;" parent="1" source="bEkU1AH99YkD4TP8FKFF-68" target="bEkU1AH99YkD4TP8FKFF-64" edge="1">
          <mxGeometry width="50" height="50" relative="1" as="geometry">
            <mxPoint x="950" y="550" as="sourcePoint" />
            <mxPoint x="1000" y="500" as="targetPoint" />
          </mxGeometry>
        </mxCell>
        <mxCell id="bEkU1AH99YkD4TP8FKFF-67" value="" style="endArrow=classic;html=1;rounded=0;exitX=0.5;exitY=1;exitDx=0;exitDy=0;entryX=0.5;entryY=0;entryDx=0;entryDy=0;" parent="1" source="bEkU1AH99YkD4TP8FKFF-61" target="bEkU1AH99YkD4TP8FKFF-66" edge="1">
          <mxGeometry width="50" height="50" relative="1" as="geometry">
            <mxPoint x="1380" y="267" as="sourcePoint" />
            <mxPoint x="1380" y="662" as="targetPoint" />
          </mxGeometry>
        </mxCell>
        <mxCell id="bEkU1AH99YkD4TP8FKFF-66" value="Is guessedNumber equal to randomNumber?" style="rhombus;whiteSpace=wrap;html=1;fillColor=#60a917;strokeColor=#2D7600;fontColor=#ffffff;" parent="1" vertex="1">
          <mxGeometry x="1235" y="332" width="290" height="80" as="geometry" />
        </mxCell>
        <mxCell id="bEkU1AH99YkD4TP8FKFF-69" value="" style="endArrow=classic;html=1;rounded=0;exitX=0.5;exitY=1;exitDx=0;exitDy=0;entryX=0.5;entryY=0;entryDx=0;entryDy=0;" parent="1" source="bEkU1AH99YkD4TP8FKFF-66" target="bEkU1AH99YkD4TP8FKFF-68" edge="1">
          <mxGeometry width="50" height="50" relative="1" as="geometry">
            <mxPoint x="1380" y="400" as="sourcePoint" />
            <mxPoint x="1380" y="662" as="targetPoint" />
          </mxGeometry>
        </mxCell>
        <mxCell id="bEkU1AH99YkD4TP8FKFF-68" value="Is guessedNumber greater than 100?" style="rhombus;whiteSpace=wrap;html=1;fillColor=#60a917;strokeColor=#2D7600;fontColor=#ffffff;" parent="1" vertex="1">
          <mxGeometry x="1250" y="482" width="260" height="80" as="geometry" />
        </mxCell>
        <mxCell id="bEkU1AH99YkD4TP8FKFF-70" value="" style="endArrow=classic;html=1;rounded=0;entryX=0;entryY=0.5;entryDx=0;entryDy=0;" parent="1" source="bEkU1AH99YkD4TP8FKFF-68" target="bEkU1AH99YkD4TP8FKFF-63" edge="1">
          <mxGeometry width="50" height="50" relative="1" as="geometry">
            <mxPoint x="1250" y="550" as="sourcePoint" />
            <mxPoint x="1300" y="500" as="targetPoint" />
          </mxGeometry>
        </mxCell>
        <mxCell id="bEkU1AH99YkD4TP8FKFF-71" value="&lt;div&gt;output &quot;You guessed the number!&quot; guessedNumber &quot;is the same number as&quot; randomNumber&lt;/div&gt;" style="shape=parallelogram;perimeter=parallelogramPerimeter;whiteSpace=wrap;html=1;fixedSize=1;fillColor=#fa6800;strokeColor=#C73500;fontColor=#000000;" parent="1" vertex="1">
          <mxGeometry x="1630" y="342" width="380" height="60" as="geometry" />
        </mxCell>
        <mxCell id="bEkU1AH99YkD4TP8FKFF-73" value="output &quot;Thank you for using this program!" style="shape=parallelogram;perimeter=parallelogramPerimeter;whiteSpace=wrap;html=1;fixedSize=1;fillColor=#fa6800;fontColor=#000000;strokeColor=#C73500;" parent="1" vertex="1">
          <mxGeometry x="1650" y="197" width="380" height="60" as="geometry" />
        </mxCell>
        <mxCell id="bEkU1AH99YkD4TP8FKFF-74" value="" style="endArrow=classic;html=1;rounded=0;exitX=1;exitY=0.5;exitDx=0;exitDy=0;" parent="1" source="bEkU1AH99YkD4TP8FKFF-61" target="bEkU1AH99YkD4TP8FKFF-73" edge="1">
          <mxGeometry width="50" height="50" relative="1" as="geometry">
            <mxPoint x="1280" y="550" as="sourcePoint" />
            <mxPoint x="1330" y="500" as="targetPoint" />
          </mxGeometry>
        </mxCell>
        <mxCell id="bEkU1AH99YkD4TP8FKFF-75" value="" style="endArrow=classic;html=1;rounded=0;exitX=1;exitY=0.5;exitDx=0;exitDy=0;entryX=0;entryY=0.5;entryDx=0;entryDy=0;" parent="1" source="bEkU1AH99YkD4TP8FKFF-66" target="bEkU1AH99YkD4TP8FKFF-71" edge="1">
          <mxGeometry width="50" height="50" relative="1" as="geometry">
            <mxPoint x="1530" y="300" as="sourcePoint" />
            <mxPoint x="1680" y="300" as="targetPoint" />
          </mxGeometry>
        </mxCell>
        <mxCell id="bEkU1AH99YkD4TP8FKFF-76" value="Yes" style="text;html=1;align=center;verticalAlign=middle;resizable=0;points=[];autosize=1;strokeColor=none;fillColor=none;" parent="1" vertex="1">
          <mxGeometry x="1550" y="200" width="40" height="30" as="geometry" />
        </mxCell>
        <mxCell id="bEkU1AH99YkD4TP8FKFF-77" value="Yes" style="text;html=1;align=center;verticalAlign=middle;resizable=0;points=[];autosize=1;strokeColor=none;fillColor=none;" parent="1" vertex="1">
          <mxGeometry x="1550" y="350" width="40" height="30" as="geometry" />
        </mxCell>
        <mxCell id="bEkU1AH99YkD4TP8FKFF-78" value="Yes" style="text;html=1;align=center;verticalAlign=middle;resizable=0;points=[];autosize=1;strokeColor=none;fillColor=none;" parent="1" vertex="1">
          <mxGeometry x="1540" y="500" width="40" height="30" as="geometry" />
        </mxCell>
        <mxCell id="bEkU1AH99YkD4TP8FKFF-79" value="No" style="text;html=1;align=center;verticalAlign=middle;whiteSpace=wrap;rounded=0;" parent="1" vertex="1">
          <mxGeometry x="1320" y="290" width="60" height="30" as="geometry" />
        </mxCell>
        <mxCell id="bEkU1AH99YkD4TP8FKFF-82" value="No" style="text;html=1;align=center;verticalAlign=middle;whiteSpace=wrap;rounded=0;" parent="1" vertex="1">
          <mxGeometry x="1320" y="450" width="60" height="30" as="geometry" />
        </mxCell>
        <mxCell id="bEkU1AH99YkD4TP8FKFF-83" value="No" style="text;html=1;align=center;verticalAlign=middle;whiteSpace=wrap;rounded=0;" parent="1" vertex="1">
          <mxGeometry x="1330" y="610" width="60" height="30" as="geometry" />
        </mxCell>
        <mxCell id="5Cz30d_9PVH-dQxHBJe9-1" value="" style="endArrow=none;html=1;rounded=0;exitX=1;exitY=0.5;exitDx=0;exitDy=0;entryX=1;entryY=0.5;entryDx=0;entryDy=0;" edge="1" parent="1" source="bEkU1AH99YkD4TP8FKFF-63" target="bEkU1AH99YkD4TP8FKFF-64">
          <mxGeometry width="50" height="50" relative="1" as="geometry">
            <mxPoint x="1500" y="430" as="sourcePoint" />
            <mxPoint x="1550" y="380" as="targetPoint" />
            <Array as="points">
              <mxPoint x="2050" y="522" />
              <mxPoint x="2050" y="710" />
            </Array>
          </mxGeometry>
        </mxCell>
        <mxCell id="5Cz30d_9PVH-dQxHBJe9-2" value="" style="endArrow=none;html=1;rounded=0;exitX=1;exitY=0.5;exitDx=0;exitDy=0;" edge="1" parent="1" source="bEkU1AH99YkD4TP8FKFF-71">
          <mxGeometry width="50" height="50" relative="1" as="geometry">
            <mxPoint x="1500" y="430" as="sourcePoint" />
            <mxPoint x="2050" y="540" as="targetPoint" />
            <Array as="points">
              <mxPoint x="2050" y="372" />
            </Array>
          </mxGeometry>
        </mxCell>
        <mxCell id="5Cz30d_9PVH-dQxHBJe9-3" value="" style="endArrow=none;html=1;rounded=0;exitX=1;exitY=0.5;exitDx=0;exitDy=0;" edge="1" parent="1" source="bEkU1AH99YkD4TP8FKFF-73">
          <mxGeometry width="50" height="50" relative="1" as="geometry">
            <mxPoint x="1500" y="430" as="sourcePoint" />
            <mxPoint x="2050" y="380" as="targetPoint" />
            <Array as="points">
              <mxPoint x="2050" y="227" />
            </Array>
          </mxGeometry>
        </mxCell>
      </root>
    </mxGraphModel>
  </diagram>
</mxfile>
